<svg version="1.1" id="Layer_1" xmlns="http://www.w3.org/2000/svg" x="0" y="0" viewBox="0 0 320 320" style="enable-background:new 0 0 320 320" xml:space="preserve"><style>.st2,.st4{fill-rule:evenodd;clip-rule:evenodd;fill:#fecd36}.st4{fill:#fff}.st5{fill:#efefef}.st7{fill:#4296d2}</style><circle cx="154.17" cy="163.2" r="123.74" style="fill:none;stroke:#efefef;stroke-linecap:round;stroke-linejoin:round;stroke-miterlimit:10;stroke-dasharray:4,8"/><g id="Cells"><path style="fill:#fff" d="m293.62 99.54-6.92-4.44H104.83l-6.91 6.9v182.02l4.44 5.92h135.91l55.35-70.05z"/><path class="st2" d="M157.18 224.46c0-19.56 6.88-36.22 20.62-49.95 13.66-13.73 30.32-20.59 50.01-20.59 19.4 0 36.02 6.86 49.87 20.59 13.84 13.73 20.76 30.38 20.76 49.95 0 19.47-6.92 36.07-20.76 49.8-13.85 13.82-30.47 20.74-49.87 20.74-19.69 0-36.35-6.91-50.01-20.74-13.74-13.73-20.62-30.33-20.62-49.8"/><path class="st2" d="M298.44 224.46h-8.27V105.43c0-3.04-1.1-5.08-3.28-6.13-.76-.38-1.64-.67-2.65-.86l-1.21-.14H108.51c-3.1 0-5.13 1.07-6.13 3.2a9.367 9.367 0 0 0-1 3.92v174.19c0 3.04 1.07 5.06 3.21 6.05 1.24.61 2.54.97 3.92 1.07h115.67l3.64 8.26H105.94c-2.14 0-4.27-.52-6.41-1.56-4.28-2.13-6.43-5.88-6.43-11.25V102.86c0-2.13.55-4.27 1.64-6.41 2.14-4.27 5.87-6.41 11.19-6.41H285.6l1.99.21c1.62.24 3.1.71 4.43 1.43 4.28 2.14 6.42 5.87 6.42 11.18v121.6z"/><path d="M137.44 123.08c-4.12 0-7.36 1.46-9.73 4.38-2.37 2.91-3.54 6.95-3.54 12.08 0 5.37 1.13 9.44 3.41 12.21 2.27 2.76 5.56 4.14 9.86 4.14 1.86 0 3.67-.18 5.4-.55 1.74-.37 3.55-.84 5.43-1.43v6.15c-3.45 1.3-7.35 1.95-11.7 1.95-6.43 0-11.35-1.94-14.8-5.83s-5.16-9.45-5.16-16.69c0-4.55.84-8.55 2.51-11.96 1.67-3.42 4.08-6.03 7.25-7.86 3.16-1.82 6.88-2.73 11.13-2.73 4.48 0 8.62.94 12.43 2.82l-2.58 5.97c-1.48-.7-3.05-1.31-4.7-1.84-1.65-.55-3.39-.81-5.21-.81z" style="fill:#fecd36"/><path class="st4" d="M191.4 192.03h28.72v14.83H191.4zM191.4 218.24h28.72v14.84H191.4zM191.4 242.03h28.72v14.84H191.4zM235.48 192.03h28.73v14.83h-28.73zM235.48 218.24h28.73v14.84h-28.73z"/></g><path class="st5" d="M274.83 141.96c-19.03 0-34.51-15.48-34.51-34.51s15.48-34.51 34.51-34.51 34.51 15.48 34.51 34.51-15.48 34.51-34.51 34.51z"/><path d="M274.83 74.45c18.2 0 33.01 14.81 33.01 33.01s-14.81 33.01-33.01 33.01-33.01-14.81-33.01-33.01 14.81-33.01 33.01-33.01m0-3c-19.89 0-36.01 16.12-36.01 36.01s16.12 36.01 36.01 36.01 36.01-16.12 36.01-36.01-16.12-36.01-36.01-36.01z" style="fill:#dedfdf"/><path class="st7" d="m212.94 47.07 18.25 1.12-1.41 17.04-7.17 4.92-7.25-3.42zM159.28 50.4h4.16l1.34-3.33.66-19.39-6.66-3.78h-12.5l-1 14.17.5 11.91zM89.03 54.9l-6.92-6.25-11.75.42-.42 25.83.75.92h18.34zM46.53 116.48l-6.25-6.16H28.11v26.91l18.42.34zM51.03 191.07l-6.09-5.42-16.25-.33-1.5 1.83v21.54l23.34.38zM78.78 247.15l-6-6-14.34-.48.59 27.31h18.66z"/><g><path class="st5" d="M210.79 45.07h22.5l-2.05 23.2-9.2 3.05-9.2-3.05-2.05-23.2zm18.04 7.5.29-2.81H215l.7 8.55h9.79l-.35 3.63-3.11.82-3.16-.82-.23-2.23h-2.75l.35 4.45 5.8 1.58h.06l5.68-1.58.82-8.73h-10.31l-.23-2.87h10.77v.01zM165.44 27.68c.55.55.82 1.21.82 1.99v19.45c0 .78-.27 1.44-.82 1.99-.55.55-1.21.82-1.99.82h-16.87c-.78 0-1.45-.27-1.99-.82-.55-.55-.82-1.21-.82-1.99V24.75c0-.78.27-1.44.82-1.99s1.21-.82 1.99-.82h11.95c.78 0 1.44.27 1.99.82l4.92 4.92zm-18.87 21.44h16.87V32.25h-6.09c-.39 0-.72-.14-1-.41-.27-.27-.41-.6-.41-1v-6.09h-9.38v24.37h.01zm2.7-16.05c.55-.55 1.21-.82 1.99-.82s1.44.27 1.99.82.82 1.21.82 1.99-.27 1.45-.82 1.99c-.55.55-1.21.82-1.99.82s-1.45-.27-1.99-.82c-.55-.55-.82-1.21-.82-1.99s.27-1.44.82-1.99zm-.82 13.24v-3.75l2.34-2.34c.31-.31.62-.31.94 0l2.34 2.34 5.16-5.16c.31-.31.62-.31.94 0l1.41 1.41v7.5h-13.13zm14.76-16.87-4.45-4.45v4.45h4.45zM89.97 53.39c.55.55.82 1.21.82 1.99v19.45c0 .78-.27 1.44-.82 1.99-.55.55-1.21.82-1.99.82H71.1c-.78 0-1.45-.27-1.99-.82-.55-.55-.82-1.21-.82-1.99V50.46c0-.78.27-1.44.82-1.99.55-.55 1.21-.82 1.99-.82h11.95c.78 0 1.44.27 1.99.82l4.93 4.92zM71.1 74.83h16.88V57.96h-6.09c-.39 0-.72-.14-1-.41-.27-.27-.41-.6-.41-1v-6.09H71.1v24.37zm12.43-14.06c.27 0 .48.12.62.35s.13.47-.03.7c-1.37 2.38-2.27 3.91-2.7 4.57l2.7 4.57c.16.23.17.47.03.7-.14.23-.34.35-.62.35h-1.7c-.27 0-.47-.12-.59-.35-.08-.12-.64-1.25-1.7-3.4-.47 1.05-1.04 2.19-1.7 3.4-.12.23-.31.35-.59.35h-1.7a.69.69 0 0 1-.62-.35c-.14-.23-.13-.47.03-.7l2.7-4.57-2.7-4.57c-.16-.23-.17-.47-.03-.7s.34-.35.62-.35h1.7c.27 0 .49.12.64.35.35.7.9 1.84 1.64 3.4.35-.86.92-1.99 1.7-3.4.12-.23.31-.35.59-.35h1.71zm4.21-5.62-4.45-4.45v4.45h4.45zM47.5 115.02c.55.55.82 1.21.82 1.99v19.45c0 .78-.27 1.44-.82 1.99s-1.21.82-1.99.82H28.64c-.78 0-1.45-.27-1.99-.82-.55-.55-.82-1.21-.82-1.99v-24.38c0-.78.27-1.44.82-1.99.55-.55 1.21-.82 1.99-.82h11.95c.78 0 1.44.27 1.99.82l4.92 4.93zm-18.86 21.45h16.88v-16.88h-6.09c-.39 0-.72-.14-1-.41-.27-.27-.41-.6-.41-1v-6.09h-9.38v24.38zm12.89-12.19h.94c.23 0 .42.09.56.26.14.18.18.38.15.62-.39 1.48-1.08 4.14-2.05 7.97-.08.35-.31.53-.7.53h-1.41c-.39 0-.62-.18-.7-.53-.27-1.13-.62-2.54-1.05-4.22l-.18-1c0 .31-.06.64-.18 1l-1.05 4.22c-.08.35-.29.53-.64.53h-1.46c-.39 0-.62-.18-.7-.53-.12-.47-.43-1.75-.94-3.84s-.84-3.47-1-4.13a.588.588 0 0 1 .12-.62c.16-.18.33-.26.53-.26h1c.39 0 .62.2.7.59.74 3.75 1.11 5.68 1.11 5.8 0 .04.02.12.06.23 0-.23.47-2.27 1.41-6.09.12-.35.35-.53.7-.53h.76c.39 0 .62.18.7.53.9 3.79 1.37 5.74 1.41 5.86v.23c.04-.23.45-2.25 1.23-6.04.05-.39.29-.58.68-.58zm3.75-7.5-4.45-4.45v4.45h4.45zM51.25 190.05c.55.55.82 1.21.82 1.99v15.7c0 .78-.27 1.45-.82 1.99-.55.55-1.21.82-1.99.82H28.64c-.78 0-1.45-.27-1.99-.82-.55-.55-.82-1.21-.82-1.99v-20.62c0-.78.27-1.44.82-1.99s1.21-.82 1.99-.82h15.7c.78 0 1.44.27 1.99.82l4.92 4.92zm-2.34 17.7c.23 0 .35-.12.35-.35v-15.23c0-.08-.04-.16-.12-.23l-4.57-4.57v5.86c0 .39-.14.72-.41 1-.27.27-.61.41-1 .41H32.85c-.39 0-.72-.14-1-.41-.27-.27-.41-.6-.41-1v-6.09h-2.46c-.23 0-.35.12-.35.35v19.92c0 .23.12.35.35.35h19.93v-.01zm-13.6-10.2c1.02-1.01 2.23-1.52 3.63-1.52s2.62.51 3.63 1.52c1.02 1.02 1.52 2.23 1.52 3.63s-.51 2.62-1.52 3.63c-1.02 1.02-2.23 1.52-3.63 1.52s-2.62-.51-3.63-1.52c-1.02-1.01-1.52-2.23-1.52-3.63s.51-2.61 1.52-3.63zm6.45-10.43h-7.5v4.69h7.5v-4.69zm-4.48 15.74c.45.45 1 .67 1.67.67.66 0 1.22-.22 1.67-.67.45-.45.67-1 .67-1.67 0-.66-.23-1.22-.67-1.67-.45-.45-1.01-.67-1.67-.67-.67 0-1.22.23-1.67.67-.45.45-.67 1.01-.67 1.67-.01.66.22 1.22.67 1.67zM79.3 245.59c.55.55.82 1.21.82 1.99v19.45c0 .78-.27 1.44-.82 1.99s-1.21.82-1.99.82H60.44c-.78 0-1.45-.27-1.99-.82-.55-.55-.82-1.21-.82-1.99v-24.38c0-.78.27-1.45.82-1.99.55-.55 1.21-.82 1.99-.82h11.95c.78 0 1.44.27 1.99.82l4.92 4.93zm-1.99 21.44v-16.88h-6.09c-.39 0-.72-.14-1-.41-.27-.27-.41-.61-.41-1v-6.09h-9.38v24.38h16.88zm-10.9-6.74c.23.23.23.49 0 .76l-1 1.05c-.12.12-.25.18-.41.18-.12 0-.23-.06-.35-.18l-3.34-3.16c-.27-.23-.27-.47 0-.7l3.34-3.16c.27-.27.53-.27.76 0l1 1.05v.06c.23.23.23.47 0 .7l-1.93 1.7 1.93 1.7zm3.52-7.91 1.41.41c.35.08.47.29.35.64l-3.22 11.02c-.08.35-.29.47-.64.35l-1.41-.41c-.35-.08-.47-.29-.35-.64l3.22-11.02c.07-.31.29-.42.64-.35zm1.4 4.52c-.23-.23-.23-.49 0-.76l1-1.05c.23-.27.49-.27.76 0l3.34 3.16c.27.23.27.47 0 .7l-3.34 3.16c-.27.27-.53.27-.76 0l-1-1.05V261c-.23-.23-.23-.47 0-.7l1.93-1.7-1.93-1.7zm1.29-14.01v4.45h4.45l-4.45-4.45z"/></g><g><linearGradient id="SVGID_1_" gradientUnits="userSpaceOnUse" x1="-37.431" y1="360.319" x2="-37.323" y2="360.212" gradientTransform="matrix(189.3834 0 0 -189.8058 7347.098 68480.953)"><stop offset="0" style="stop-color:#387eb8"/><stop offset="1" style="stop-color:#366994"/></linearGradient><path d="M274.95 86.48c-10.51 0-9.85 4.56-9.85 4.56l.01 4.72h10.03v1.42h-14.01s-6.73-.76-6.73 9.84 5.87 10.23 5.87 10.23h3.5v-4.92s-.19-5.87 5.78-5.87h9.95s5.59.09 5.59-5.4v-9.08c0-.01.85-5.5-10.14-5.5zm-5.53 3.17a1.799 1.799 0 1 1 .002 3.598 1.799 1.799 0 0 1-.002-3.598z" style="fill:url(#SVGID_1_)"/><linearGradient id="SVGID_2_" gradientUnits="userSpaceOnUse" x1="-37.713" y1="360.589" x2="-37.597" y2="360.479" gradientTransform="matrix(189.3834 0 0 -189.8058 7413.099 68545.21)"><stop offset="0" style="stop-color:#ffe052"/><stop offset="1" style="stop-color:#ffc331"/></linearGradient><path d="M275.25 127.67c10.51 0 9.85-4.56 9.85-4.56l-.01-4.72h-10.03v-1.42h14.01s6.73.76 6.73-9.84c0-10.61-5.87-10.23-5.87-10.23h-3.5v4.92s.19 5.87-5.78 5.87h-9.95s-5.59-.09-5.59 5.4v9.08c.01 0-.84 5.5 10.14 5.5zm5.53-3.18a1.799 1.799 0 1 1 1.8-1.8c.01 1-.8 1.8-1.8 1.8z" style="fill:url(#SVGID_2_)"/></g></svg>